<svg width="1038" height="126" viewBox="0 0 1038 126" fill="none" xmlns="http://www.w3.org/2000/svg">
<g opacity="0.6">
<path fill-rule="evenodd" clip-rule="evenodd" d="M470.844 -720.866C583.869 -704.187 706.081 -699.278 778.851 -636.628C864.563 -562.835 921.355 -463.094 886.909 -362.662C851.348 -258.984 728.548 -182.921 603.001 -123.926C474.78 -63.6744 332.655 -24.2555 188.932 -34.68C27.397 -46.3964 -153.602 -78.062 -219.293 -183.568C-283.291 -286.355 -184.457 -409.66 -112.656 -519.061C-55.618 -605.97 20.9325 -689.758 139.932 -730.915C248.078 -768.317 359.891 -737.24 470.844 -720.866Z" stroke="white"/>
<path fill-rule="evenodd" clip-rule="evenodd" d="M553.985 -762.056C700.708 -738.7 776.31 -629.513 831.856 -528.696C880.228 -440.9 880.536 -342.649 837.673 -247.157C796.103 -154.544 723.736 -60.6076 602.684 -18.1322C489.628 21.5375 379.116 -38.029 259.514 -44.2884C101.136 -52.5772 -97.1707 23.3943 -199.214 -60.0996C-303.663 -145.563 -248.63 -292.448 -183.956 -407.146C-125.781 -510.319 -0.502918 -578.826 128.173 -640.712C262.167 -705.156 407.047 -785.447 553.985 -762.056Z" stroke="white"/>
<path fill-rule="evenodd" clip-rule="evenodd" d="M575.196 -738.122C718.942 -739.672 863.675 -677.249 910.173 -580.756C954.078 -489.644 836.41 -395.867 786.323 -299.988C743.051 -217.157 735.518 -123.784 641.245 -65.9675C534.028 -0.211882 388.475 47.8382 264.161 20.2487C143.896 -6.44248 128.155 -118.519 61.0373 -194.736C-14.2085 -280.184 -198.763 -343.685 -146.511 -446.104C-93.6372 -549.742 121.006 -519.724 254.369 -573.686C372.564 -621.51 445.476 -736.724 575.196 -738.122Z" stroke="white"/>
<path fill-rule="evenodd" clip-rule="evenodd" d="M511.306 -751.939C646.983 -737.072 743.768 -652.896 793.238 -560.895C837.581 -478.43 780.147 -387.308 756.519 -295.909C727.634 -184.176 771.859 -44.7459 642.178 23.4505C511.73 92.0502 352.877 16.237 205.512 -6.1464C56.5839 -28.7671 -137.393 -9.20531 -207.888 -105.666C-278.176 -201.844 -175.292 -325.107 -104.873 -430.861C-49.2455 -514.402 38.5576 -577.91 142.701 -632.177C257.771 -692.138 379.777 -766.351 511.306 -751.939Z" stroke="white"/>
<path fill-rule="evenodd" clip-rule="evenodd" d="M479.292 -710.516C580.895 -684.615 703.146 -689.564 767.75 -627.973C839.538 -559.533 843.837 -466.618 830.082 -376.088C812.118 -257.859 809.709 -122.351 679.081 -44.3885C539.864 38.7001 345.763 40.6654 183.898 9.57195C28.6908 -20.2425 -99.584 -98.3831 -161.119 -205.787C-217.497 -304.189 -171.159 -417.598 -122.539 -525.281C-75.8703 -628.642 -32.0005 -754.36 105.703 -796.743C238.642 -837.66 351.368 -743.127 479.292 -710.516Z" stroke="white"/>
<path fill-rule="evenodd" clip-rule="evenodd" d="M451.924 -659.416C593.665 -641.413 798.11 -688.449 855.681 -593.887C913.878 -498.298 728.092 -403.26 671.092 -299.429C624.539 -214.629 663.324 -100.463 557.33 -50.4137C451.114 -0.259941 333.136 -69.3657 215.967 -84.5245C90.7842 -100.72 -75.8755 -63.7224 -141.583 -140.836C-207.588 -218.298 -100.736 -320.801 -65.3988 -414.731C-28.436 -512.982 -52.6184 -637.741 66.5639 -694.113C186.069 -750.636 319.927 -676.181 451.924 -659.416Z" stroke="white"/>
<path fill-rule="evenodd" clip-rule="evenodd" d="M473.951 -695.207C576.449 -674.919 649.662 -622.772 713.689 -562.722C792.914 -488.419 891.807 -415.193 877.931 -316.321C861.962 -202.541 782.029 -76.1329 638.042 -23.725C499.001 26.883 359.656 -46.7429 219.786 -76.7704C96.2911 -103.282 -42.6044 -110.901 -116.896 -185.796C-198.105 -267.664 -235.804 -380.449 -182.423 -482.244C-131.37 -579.601 9.61059 -633.823 140.276 -676.218C249.381 -711.617 365.327 -716.707 473.951 -695.207Z" stroke="white"/>
<path fill-rule="evenodd" clip-rule="evenodd" d="M468.371 -709.512C588.189 -689.115 658.482 -610.638 718.357 -533.811C778.931 -456.085 828.709 -371.585 804.184 -278.619C777.026 -175.672 713.339 -60.1568 581.355 -14.4795C454.49 29.4259 328.253 -36.3644 206.444 -71.7527C111.805 -99.2475 26.0444 -132.914 -32.6041 -192.849C-99.5921 -261.306 -167.839 -339.019 -140.674 -426.483C-112.284 -517.892 -4.93798 -586.698 105.685 -638.105C217.814 -690.212 347.077 -730.16 468.371 -709.512Z" stroke="white"/>
</g>
</svg>
